<svg width="1440" height="300" viewBox="0 0 1440 300" fill="none" xmlns="http://www.w3.org/2000/svg">
<path fill-rule="evenodd" clip-rule="evenodd" d="M34 86.1985H0V200V300H1440V200V29.6266L1406 38.8359C1371 48.7031 1303 67.1219 1234 53.3078C1209.26 48.043 1184.39 38.4253 1159.49 28.7936C1115.93 11.9496 1072.26 -4.93696 1029 1.3406C996.935 5.62034 964.869 22.2595 932.904 38.8465C896.085 57.9523 859.399 76.9891 823 76.9891C788.5 76.9891 754.25 60.3793 720 43.7695C685.75 27.1598 651.5 10.55 617 10.55C575.77 10.55 534.173 34.9743 492.431 59.4837C465.328 75.3976 438.164 91.3474 411 100.67C355.618 119.957 299.574 110.883 243.946 101.876C231.271 99.8233 218.618 97.7746 206 96.0657C137 86.1985 69 86.1985 34 86.1985Z" fill="#1D1929"/>
</svg>
