<svg width="195" height="109" viewBox="0 0 195 109" fill="none" xmlns="http://www.w3.org/2000/svg">
<g clip-path="url(#clip0)">
<path d="M92.9118 89.8226H10.979C10.979 89.8226 39.9832 104.411 47.0294 105.722C53.7479 106.869 65.5462 109 92.9118 109C120.277 109 132.076 107.033 138.794 105.722C145.676 104.411 174.845 89.8226 174.845 89.8226H92.9118Z" fill="#D2CAAC"/>
<path d="M92.9118 102.116C144.226 102.116 185.824 92.2088 185.824 79.988C185.824 67.7671 144.226 57.8602 92.9118 57.8602C41.598 57.8602 0 67.7671 0 79.988C0 92.2088 41.598 102.116 92.9118 102.116Z" fill="#EBE4D1"/>
<path d="M92.9118 90.6421C129.564 90.6421 159.277 84.6979 159.277 77.3654C159.277 70.0329 129.564 64.0887 92.9118 64.0887C56.2591 64.0887 26.5462 70.0329 26.5462 77.3654C26.5462 84.6979 56.2591 90.6421 92.9118 90.6421Z" fill="#D0C2A9"/>
<path d="M190.739 22.9474C175.172 6.22857 147.151 25.5699 147.151 25.5699C147.151 25.5699 121.752 81.791 127.324 79.0045C132.895 76.0541 156.328 64.4165 166.16 60.3188C175.828 56.2211 206.307 39.6662 190.739 22.9474ZM139.45 58.8436L148.954 37.5353C148.954 37.5353 170.42 22.6196 176.647 33.2737C183.038 43.7639 139.45 58.8436 139.45 58.8436Z" fill="#EBE4D1"/>
<path opacity="0.75" d="M156.819 51.7955C147.971 55.8932 139.45 58.8436 139.45 58.8436L148.954 37.5353C148.954 37.5353 156.655 32.1263 164.357 30.1594C165.504 25.7338 166.324 21.3083 166.815 16.8827C156.164 19.1774 146.987 25.406 146.987 25.406C146.987 25.406 121.752 81.791 127.323 79.0045C130.601 77.3654 139.777 72.612 148.954 68.3504C151.739 62.9414 154.361 57.3684 156.819 51.7955Z" fill="#EBE4D1"/>
<path d="M90.9454 21.3083C90.9454 21.3083 34.9034 18.8496 23.2689 14.4241C23.2689 14.4241 37.3614 84.2496 67.8403 93.9203C67.8403 93.9203 75.2143 96.5429 91.1093 96.5429C107.004 96.5429 114.378 93.9203 114.378 93.9203C144.529 84.2496 158.622 14.4241 158.622 14.4241C146.987 18.8496 90.9454 21.3083 90.9454 21.3083Z" fill="#EBE4D1"/>
<path opacity="0.32" d="M116.508 19.8331C115.689 43.7639 112.74 68.8421 100.45 88.1835C99.3025 89.9865 97.6639 92.1173 96.1891 93.7564C98.4832 93.7564 102.744 93.2647 106.185 92.7729C117.492 83.594 126.504 71.4647 131.256 58.0241C135.681 45.403 138.139 31.1429 141.908 17.5383C134.042 18.5218 124.866 19.1774 116.508 19.8331Z" fill="#EBE4D1"/>
<path opacity="0.75" d="M118.311 76.8737C104.546 76.0541 94.5505 68.6782 90.2899 55.4015C87.0126 45.2391 83.5715 33.9293 83.0799 22.9474C68.1681 22.1278 35.2311 19.997 26.7101 16.7188C26.7101 16.7188 39.9832 82.4466 68.4958 91.4616C68.4958 91.4616 75.542 93.9203 90.2899 93.9203C105.202 93.9203 112.084 91.4616 112.084 91.4616C120.113 89.003 126.996 81.9549 132.567 73.1037C128.307 75.7263 123.555 77.2015 118.311 76.8737Z" fill="#EBE4D1"/>
<path opacity="0.55" d="M72.5925 92.609C76.1975 93.2647 81.9328 94.0842 90.1261 94.0842C92.2563 94.0842 94.2227 94.0842 96.1891 93.9203C96.1891 93.9203 96.1891 93.9203 96.0252 93.7564C83.8992 81.1353 78.6555 66.8752 73.4118 49.8286C71.1177 42.7805 68.332 30.4872 66.6933 22.1278C56.6975 21.3083 45.3908 20.3248 37.1975 19.0135C38.0168 22.1278 38.8362 25.0782 39.4916 27.7008C43.0967 41.1414 47.521 55.4015 53.5841 67.8587C58.5 78.5128 65.0546 86.5444 72.5925 92.609Z" fill="#EBE4D1"/>
<path d="M90.9454 0C33.7563 0 23.2689 14.4241 23.2689 14.4241C40.8025 31.9624 90.9454 32.1263 90.9454 32.1263C90.9454 32.1263 141.252 31.9624 158.622 14.4241C158.622 14.4241 148.134 0 90.9454 0Z" fill="#F3EFE3"/>
<path d="M119.95 29.5038C104.546 32.618 88.6513 32.782 73.2479 30.815C41.9496 26.8812 24.5798 15.7353 23.2689 14.4241C28.3488 19.5053 36.2143 22.9474 44.8992 26.2256C74.5588 37.3714 107.496 37.3714 137.155 26.2256C145.84 22.9474 153.706 19.5053 158.786 14.4241C156.655 16.391 138.303 25.7338 119.95 29.5038Z" fill="#F8F7F0"/>
<path d="M90.9454 2.62256C43.0967 2.62256 34.2479 14.0962 34.2479 14.0962C48.832 28.0286 90.9454 28.1925 90.9454 28.1925C90.9454 28.1925 133.059 28.0286 147.643 14.0962C147.643 14.0962 138.794 2.62256 90.9454 2.62256Z" fill="#D0C2A9"/>
<path d="M47.0294 21.3083C65.2185 28.0286 90.9454 28.0286 90.9454 28.0286C90.9454 28.0286 116.672 27.8647 134.861 21.3083C127.324 18.3579 114.05 15.2436 90.9454 15.2436C67.8403 15.2436 54.5672 18.3579 47.0294 21.3083Z" fill="#94C037"/>
<path d="M169.273 67.203C165.668 70.1534 161.899 72.612 157.803 74.5789C158.786 75.3985 159.277 76.3819 159.277 77.3654C159.277 84.7413 129.618 90.6421 92.9118 90.6421C56.2059 90.6421 26.5462 84.7413 26.5462 77.3654C26.5462 74.5789 30.8067 71.9564 38.1807 69.8256C37.6891 69.4977 37.0336 69.3338 36.542 69.006C34.084 67.3669 32.2815 65.4 31.1345 63.4331C12.126 67.3669 0 73.2677 0 79.988C0 92.2812 41.6219 102.116 92.9118 102.116C144.202 102.116 185.824 92.1173 185.824 79.988C185.987 75.2346 179.761 70.809 169.273 67.203Z" fill="#EBE4D1"/>
<path opacity="0.75" d="M19.1723 93.4286C26.7101 94.2481 34.4118 94.7398 41.9496 94.412C45.2269 94.2481 53.584 92.1173 58.3361 88.8391C43.4244 86.7083 29.8235 82.9383 27.2017 79.1684C24.5798 78.5128 21.958 77.8571 19.1723 77.3654C11.3067 76.0541 6.71848 79.3323 0.655457 82.2827C2.45798 86.5444 9.17647 90.3143 19.1723 93.4286Z" fill="#EBE4D1"/>
<path d="M51.6176 75.0707C52.7647 76.3819 53.584 78.021 54.2395 79.4962C55.0588 81.4632 55.3865 84.5774 56.042 86.5444C52.7647 87.2 50.1428 87.5278 46.7017 88.6752C43.0966 89.8225 39 90.806 34.7395 89.6586C31.2983 88.8391 28.1849 86.7083 25.563 84.0857C22.9412 81.4632 20.8109 78.6767 18.8445 75.7263C17.6975 74.0872 16.3865 72.2842 15.2395 70.6451C13.6008 68.1865 11.7983 65.8917 10.6512 63.2692C18.1891 60.9744 26.0546 59.6632 33.2647 62.2857C36.2143 63.4331 39 65.0722 41.458 66.8752C43.5882 68.3504 45.7185 69.9895 47.8487 71.6286C49.1597 72.612 50.4706 73.7594 51.6176 75.0707Z" fill="#1BA33D"/>
<path opacity="0.32" d="M49.4874 75.2346C50.4706 76.382 51.126 77.6932 51.7815 79.0045C52.6008 80.6436 52.7647 83.2662 53.2563 85.0692C50.3067 85.5609 48.1765 85.8887 45.2269 86.8722C42.1134 87.8556 38.6722 88.5113 35.0672 87.5278C32.1176 86.7083 29.6596 84.9053 27.3655 82.7744C25.2353 80.6436 23.4328 78.185 21.7941 75.7263C20.8109 74.2511 19.8277 72.9398 18.8445 71.4647C17.3697 69.4977 16.0588 67.3669 14.9117 65.2361C21.1386 63.2692 27.6933 61.9579 33.7563 64.2526C36.2143 65.2361 38.5084 66.7113 40.8025 68.1865C42.605 69.4977 44.4075 70.809 46.2101 72.2842C47.521 73.2677 48.668 74.0872 49.4874 75.2346Z" fill="#316D54"/>
<path opacity="0.32" d="M34.2479 80.9714C40.9664 85.8887 46.7017 84.5774 52.6008 85.2331C52.6008 85.2331 52.6008 85.2331 52.7647 85.2331C47.8487 81.4632 42.605 78.021 36.7059 74.9068C30.9706 72.1203 23.2689 67.203 16.0588 65.7278C22.6134 70.4812 27.6933 76.218 34.2479 80.9714Z" fill="#316D54"/>
<path d="M18.3529 69.3338C23.105 71.1368 25.2353 70.3173 25.8907 69.9895C24.9075 69.4977 23.7605 69.006 22.7773 68.5143C20.4832 67.5308 17.6975 66.0556 15.2395 65.0722C15.2395 65.0722 19.8277 66.5474 26.3823 69.3338C26.2185 68.6782 25.2353 65.7278 21.3025 63.4331C21.3025 63.4331 25.8907 65.0722 26.7101 69.4977C28.8403 70.3173 30.9706 71.4647 33.4285 72.4481C33.4285 72.4481 32.9369 67.6947 29.3319 64.5805C29.3319 64.5805 33.2647 67.0391 34.084 72.7759C36.542 73.9233 39 75.2346 41.458 76.5459C41.1302 75.0707 39.8193 70.1534 36.3781 67.203C36.3781 67.203 41.6218 70.4812 42.1134 76.8737C44.0798 78.0211 46.0462 79.1684 48.0126 80.4797C47.3571 78.6767 46.0462 74.7429 43.7521 71.3008C43.7521 71.3008 47.521 75.5624 48.668 80.9714C51.9454 83.1023 55.0588 85.397 58.0084 88.0196C58.0084 88.0196 58.0084 88.8391 57.1891 89.1669C57.1891 89.1669 53.9117 86.3805 48.1764 82.6105C44.8991 85.397 38.8361 84.4135 38.8361 84.4135C43.5882 84.4135 46.5378 82.7744 47.521 82.2827C45.8823 81.2993 44.0798 80.1519 42.2773 78.8406C41.9496 78.6767 41.6218 78.5128 41.2941 78.185C37.6891 80.8075 29.9874 79.3323 29.9874 79.3323C36.3781 79.8241 39.6554 78.3489 40.6386 77.8571C38.5084 76.5459 36.2143 75.2346 33.7563 73.9233C29.8235 76.5459 22.4496 73.7594 22.4496 73.7594C28.1848 75.5624 32.4454 73.9233 33.2647 73.5955C31.1344 72.4481 28.8403 71.3008 26.3823 70.1534C22.9412 71.9564 18.3529 69.3338 18.3529 69.3338Z" fill="#4DB605"/>
<path d="M30.9706 61.6301C31.2983 71.4647 34.9034 82.1188 41.458 87.3639C42.4412 88.1835 43.5882 88.6752 44.8992 89.3308C45.5546 89.1669 46.0462 89.003 46.5378 88.8391C49.3235 87.8556 51.4538 87.5278 53.9118 87.0361C55.8781 88.5113 56.8613 89.3308 56.8613 89.3308C57.6807 89.003 57.6807 88.1835 57.6807 88.1835C57.0252 87.6917 56.3697 87.0361 55.7143 86.5444C55.0588 84.5774 54.7311 81.4632 53.9118 79.4962C53.2563 78.0211 52.437 76.382 51.2899 75.0707C50.1429 73.7594 48.8319 72.612 47.521 71.6286C45.5546 69.9895 43.4244 68.5143 41.1302 66.8752C38.6723 65.0722 35.8865 63.4331 32.937 62.2857C32.6092 61.9579 31.7899 61.794 30.9706 61.6301Z" fill="#4DB605"/>
<path d="M40.4748 49.3368C40.6386 49.009 41.1302 48.8451 41.458 49.1729C44.2437 51.6316 47.3571 53.7624 50.3067 56.2211C53.4202 58.6797 56.5336 61.6301 58.3361 65.0722C58.8277 66.2196 59.3193 67.203 59.8109 68.3504C60.7941 71.1368 61.4496 74.2511 61.1218 77.2015C60.7941 79.988 59.647 82.7744 57.6807 84.5774C57.3529 85.0692 56.6975 85.2331 56.042 85.2331C55.3865 85.2331 54.8949 84.7414 54.2395 84.4135C47.1933 80.1519 41.7857 73.1038 39.3277 65.2361C37.8529 61.1383 38.8361 52.9429 40.4748 49.3368Z" fill="#1BA33D"/>
<path opacity="0.32" d="M56.5336 83.7579C50.9622 81.4632 48.0126 78.0211 45.063 73.5955C42.4412 69.6617 39.8193 65.0722 40.147 60.1549C40.3109 57.2045 40.8025 54.2541 41.2941 51.4677C41.458 51.6316 44.4075 54.4181 45.8823 55.4015C50.4706 58.3519 53.2563 60.4827 55.8781 64.2526C58.5 68.1865 59.8109 72.9399 59.1554 77.8572C58.9916 79.4962 57.0252 82.9384 56.8613 83.1023L56.5336 83.7579Z" fill="#316D54"/>
<path opacity="0.32" d="M52.6008 81.4632C50.3067 79.0045 47.521 73.9233 46.2101 70.6451C43.7521 64.7444 42.2773 59.6632 41.9496 53.5985C42.4412 54.582 47.1933 62.1218 48.8319 65.2361C51.2899 70.3173 54.895 79.6602 56.5336 84.9053C55.5504 84.5775 53.0924 82.1188 52.6008 81.4632Z" fill="#316D54"/>
<path d="M41.7857 58.0241C43.7521 60.9744 45.5546 61.3023 46.0462 61.3023C45.7185 60.6466 45.2269 59.8271 44.8992 59.1714C44.0798 57.6962 43.0966 55.7293 42.1134 54.2541C42.1134 54.2541 44.0798 56.8767 46.7017 61.1383C47.0294 60.6466 48.0126 58.188 46.7017 55.2376C46.7017 55.2376 48.8319 58.0241 46.8655 61.3023C47.6849 62.7774 48.6681 64.2526 49.6513 66.0556C49.6513 66.0556 52.1092 62.4496 51.4538 59.0075C51.4538 59.0075 52.7647 62.2857 49.979 66.7113C50.9622 68.5143 51.9454 70.4812 52.9286 72.612C53.584 71.4647 55.7143 67.5308 54.895 63.7609C54.895 63.7609 56.6975 68.3504 53.0924 73.1038C53.9118 74.7429 54.5672 76.5459 55.2227 78.3489C55.8781 76.8737 57.3529 73.4316 57.8445 69.9895C57.8445 69.9895 58.1723 74.7429 55.5504 79.1684C56.6975 82.2827 57.6807 85.5609 58.1723 89.003C58.1723 89.003 57.6807 89.4947 56.8613 89.1669C56.8613 89.1669 56.042 85.397 54.2395 79.8241C50.1428 79.988 46.7017 76.382 46.7017 76.382C49.979 78.6767 52.9286 79.1684 54.0756 79.1684C53.584 77.6932 52.9286 76.0541 52.2731 74.2511C52.1092 73.9233 52.1092 73.5955 51.9454 73.4316C47.8487 73.4316 43.7521 69.006 43.7521 69.006C47.521 72.1203 50.6344 72.612 51.7815 72.7759C50.9622 70.9729 50.1429 69.006 49.3235 67.0391C45.2269 67.0391 42.1134 62.4496 42.1134 62.4496C44.7353 65.8917 48.3403 66.5474 49.1597 66.7113C48.3403 65.0722 47.521 63.2692 46.5378 61.6301C43.2605 61.6301 41.7857 58.0241 41.7857 58.0241Z" fill="#4DB605"/>
</g>
<defs>
<clipPath id="clip0">
<rect width="195" height="109" fill="white"/>
</clipPath>
</defs>
</svg>
