<svg width="154" height="16" viewBox="0 0 154 16" fill="none" xmlns="http://www.w3.org/2000/svg">
<path d="M12.1969 5.56934C13.193 4.29785 14.4586 3.66211 15.9938 3.66211C16.4156 3.66211 16.8492 3.75 17.2945 3.92578C17.7457 4.10156 18.1383 4.35645 18.4723 4.69043C19.1988 5.41699 19.5621 6.36914 19.5621 7.54688V15H14.4645V9.36621C14.4645 8.64551 14.3502 8.08008 14.1217 7.66992C13.8932 7.25391 13.6207 7.0459 13.3043 7.0459C12.9938 7.04004 12.7887 7.24219 12.6891 7.65234C12.6598 7.76953 12.6451 7.90137 12.6451 8.04785V15H7.66172V9.36621C7.66172 8.64551 7.53574 8.08008 7.28379 7.66992C7.0377 7.25391 6.76817 7.0459 6.4752 7.0459C6.00645 7.0459 5.77207 7.42383 5.77207 8.17969V15H0.551369V4.0752H3.43418L4.69102 5.78027C5.11875 5.13574 5.72813 4.62305 6.51914 4.24219C7.31602 3.85547 8.12754 3.66211 8.95371 3.66211C10.026 3.66211 10.9137 4.02539 11.6168 4.75195C11.8453 4.98633 12.0387 5.25879 12.1969 5.56934ZM23.0229 14.0332C22.5541 13.5938 22.1791 13.043 21.8979 12.3809C21.6225 11.7129 21.4848 10.9951 21.4848 10.2275C21.4848 9.45996 21.5609 8.79492 21.7133 8.23242C22.018 7.11328 22.5512 6.17285 23.3129 5.41113C23.6762 5.03613 24.0805 4.71973 24.5258 4.46191C25.4398 3.92871 26.4037 3.66211 27.4174 3.66211C28.4369 3.66211 29.3305 3.99902 30.098 4.67285C30.3441 4.88965 30.558 5.13867 30.7397 5.41992L31.9965 4.0752H34.8793V15H31.9965L30.7397 13.1807C29.7787 14.5986 28.3227 15.3105 26.3715 15.3164C25.8324 15.3223 25.2553 15.2168 24.64 15C24.0307 14.7891 23.4916 14.4668 23.0229 14.0332ZM30.142 7.38867C29.9311 7.26562 29.6791 7.2041 29.3861 7.2041C29.0932 7.2041 28.7826 7.30957 28.4545 7.52051C28.1322 7.72559 27.8422 7.98633 27.5844 8.30273C27.0102 9.01172 26.723 9.73242 26.723 10.4648C26.723 10.9805 26.8813 11.3438 27.1977 11.5547C27.4906 11.748 27.9359 11.7217 28.5336 11.4756C29.1371 11.2236 29.6732 10.8984 30.142 10.5V7.38867ZM45.4416 14.209C44.3283 14.9648 43.1477 15.3428 41.8996 15.3428C40.6574 15.3428 39.6467 14.9912 38.8674 14.2881C38.0881 13.5791 37.6984 12.627 37.6984 11.4316V6.86133H36.6965V4.0752H37.6984V1.12207L42.9543 0.585938V4.0752H45.4416V6.86133H42.9543V9.62109C42.9543 10.4473 43.1389 11.0479 43.508 11.4229C43.883 11.792 44.5275 11.9766 45.4416 11.9766V14.209ZM53.5605 11.6689C54.1523 11.6689 55.0078 11.25 56.127 10.4121V14.71C54.2051 15.4365 52.4326 15.5391 50.8096 15.0176C49.1865 14.4961 48.0352 13.5645 47.3555 12.2227C47.0156 11.543 46.8457 10.7461 46.8457 9.83203C46.8457 7.99219 47.4785 6.50098 48.7441 5.3584C50.0098 4.21582 51.6562 3.64453 53.6836 3.64453C54.5215 3.64453 55.2773 3.77051 55.9512 4.02246V7.40625C55.793 7.27148 55.5703 7.2041 55.2832 7.2041C54.9961 7.2041 54.6885 7.29492 54.3604 7.47656C54.0322 7.6582 53.7334 7.90137 53.4639 8.20605C52.8428 8.90918 52.5322 9.63281 52.5322 10.377C52.5381 11.1152 52.7637 11.5312 53.209 11.625C53.3262 11.6484 53.4434 11.6631 53.5605 11.6689ZM63.6131 5.24414C64.4041 4.18945 65.6023 3.66211 67.2078 3.66211C67.6648 3.66211 68.1512 3.76758 68.6668 3.97852C69.1824 4.18945 69.6307 4.49414 70.0115 4.89258C70.8318 5.74219 71.242 6.86719 71.242 8.26758V15H65.9861V10.2627C65.9861 9.31934 65.8338 8.5459 65.5291 7.94238C65.2244 7.33301 64.867 7.02832 64.4568 7.02832C63.8943 7.02832 63.6131 7.41211 63.6131 8.17969V15H58.3924V0.208008H63.6131V5.24414ZM74.7115 14.0332C74.2428 13.5938 73.8678 13.043 73.5865 12.3809C73.3111 11.7129 73.1734 10.9951 73.1734 10.2275C73.1734 9.45996 73.2496 8.79492 73.402 8.23242C73.7066 7.11328 74.2398 6.17285 75.0016 5.41113C75.3648 5.03613 75.7691 4.71973 76.2145 4.46191C77.1285 3.92871 78.0924 3.66211 79.1061 3.66211C80.1256 3.66211 81.0191 3.99902 81.7867 4.67285C82.0328 4.88965 82.2467 5.13867 82.4283 5.41992L83.6852 4.0752H86.568V15H83.6852L82.4283 13.1807C81.4674 14.5986 80.0113 15.3105 78.0602 15.3164C77.5211 15.3223 76.9439 15.2168 76.3287 15C75.7193 14.7891 75.1803 14.4668 74.7115 14.0332ZM81.8307 7.38867C81.6197 7.26562 81.3678 7.2041 81.0748 7.2041C80.7818 7.2041 80.4713 7.30957 80.1432 7.52051C79.8209 7.72559 79.5309 7.98633 79.273 8.30273C78.6988 9.01172 78.4117 9.73242 78.4117 10.4648C78.4117 10.9805 78.5699 11.3438 78.8863 11.5547C79.1793 11.748 79.6246 11.7217 80.2223 11.4756C80.8258 11.2236 81.3619 10.8984 81.8307 10.5V7.38867Z" fill="#1D1929"/>
<path d="M93.8695 15H88.8861V0.208008H93.8695V15ZM103.773 7.18652C103.655 7.12793 103.503 7.09863 103.316 7.09863C103.134 7.09863 102.932 7.1543 102.709 7.26562C102.487 7.37109 102.267 7.51758 102.05 7.70508C101.593 8.10352 101.209 8.58691 100.899 9.15527C100.588 9.72363 100.433 10.248 100.433 10.7285C100.433 11.2031 100.614 11.5225 100.978 11.6865C101.107 11.7451 101.265 11.7744 101.452 11.7744C101.64 11.7744 101.836 11.7188 102.041 11.6074C102.246 11.4902 102.451 11.335 102.656 11.1416C103.084 10.7373 103.459 10.248 103.781 9.67383C104.104 9.09375 104.265 8.5752 104.265 8.11816C104.265 7.66113 104.101 7.35059 103.773 7.18652ZM102.068 15.3252C100.392 15.3252 98.9475 14.7949 97.7346 13.7344C96.4397 12.6094 95.7922 11.1943 95.7922 9.48926C95.7922 7.77832 96.3986 6.38086 97.6115 5.29688C98.8244 4.20703 100.321 3.66211 102.103 3.66211C103.884 3.66211 105.381 4.19531 106.594 5.26172C107.807 6.32227 108.416 7.74316 108.422 9.52441C108.428 10.667 108.138 11.6777 107.552 12.5566C106.966 13.4355 106.184 14.1152 105.205 14.5957C104.227 15.0762 103.181 15.3193 102.068 15.3252ZM115.601 7.29199L117.095 4.0752H121.287L115.899 14.9824C115.794 15.2109 115.565 15.3252 115.214 15.3252C114.862 15.3252 114.625 15.2109 114.502 14.9824L108.833 4.0752H113.975L115.601 7.29199ZM129.151 7.2041C129.151 6.68848 128.911 6.43066 128.43 6.43066C127.88 6.4834 127.522 6.76758 127.358 7.2832C127.276 7.5293 127.218 7.81641 127.182 8.14453C127.153 8.4668 127.106 8.8125 127.042 9.18164L128.967 8.75098L129.134 7.40625L129.151 7.2041ZM127.965 11.2031C127.965 11.2031 127.804 11.2031 127.481 11.2031C127.329 11.2031 127.182 11.1973 127.042 11.1855C127.042 11.8828 127.414 12.2637 128.158 12.3281C128.363 12.3457 128.562 12.3545 128.756 12.3545C129.254 12.3545 129.878 12.2402 130.628 12.0117C131.384 11.7832 132.06 11.4111 132.658 10.8955L133.203 13.6289C131.896 14.7598 129.922 15.3252 127.279 15.3252C125.762 15.3252 124.458 14.8828 123.368 13.998C122.184 13.0312 121.593 11.6924 121.593 9.98145C121.593 8.69238 121.927 7.53516 122.595 6.50977C123.216 5.57227 124.056 4.86035 125.117 4.37402C126.178 3.8877 127.323 3.64453 128.554 3.64453C130.147 3.64453 131.351 3.99316 132.166 4.69043C132.986 5.3877 133.393 6.24902 133.388 7.27441C133.388 8.2998 132.898 9.21094 131.92 10.0078C130.941 10.8047 129.623 11.2031 127.965 11.2031ZM143.255 8.19727C142.716 8.19727 142.163 8.39355 141.594 8.78613C141.026 9.17871 140.739 9.55078 140.733 9.90234V15H135.442V4.0752H140.733V5.24414C141.032 4.79297 141.401 4.43262 141.84 4.16309C142.286 3.89355 142.757 3.73242 143.255 3.67969V8.19727ZM153.088 7.35352C151.788 7.04883 150.841 6.89648 150.249 6.89648C150.079 6.89648 149.948 6.93457 149.854 7.01074C149.766 7.08691 149.722 7.17188 149.722 7.26562C149.722 7.45898 149.962 7.65527 150.443 7.85449C150.929 8.04785 151.374 8.23828 151.779 8.42578C152.183 8.61328 152.532 8.8418 152.825 9.11133C153.457 9.69727 153.774 10.5703 153.774 11.7305C153.774 12.8848 153.355 13.7725 152.517 14.3936C151.679 15.0146 150.545 15.3252 149.116 15.3252C147.686 15.3252 146.543 15.1934 145.688 14.9297C145.313 14.8184 145.026 14.6865 144.827 14.5342V11.2734C144.909 11.2793 145.052 11.3174 145.257 11.3877C145.462 11.458 145.802 11.5693 146.277 11.7217C146.751 11.8682 147.182 11.9414 147.569 11.9414C147.961 11.9414 148.158 11.7979 148.158 11.5107C148.158 11.2881 147.982 11.0713 147.63 10.8604C147.472 10.7666 147.293 10.6699 147.094 10.5703C146.268 10.166 145.676 9.7002 145.319 9.17285C144.967 8.63965 144.791 8.01562 144.791 7.30078C144.791 6.0293 145.307 5.08008 146.338 4.45312C147.205 3.92578 148.339 3.66211 149.74 3.66211C150.718 3.66211 151.7 3.75879 152.684 3.95215C152.895 3.99316 153.03 4.02246 153.088 4.04004V7.35352Z" fill="#5CFF85"/>
</svg>
