<svg width="1440" height="1774" viewBox="0 0 1440 1774" fill="none" xmlns="http://www.w3.org/2000/svg">
<path d="M60 42.9151L0 32.3745V1710.47L60 1685.42C120 1660.36 240 1611.11 360 1635.3C415.484 1646.89 470.968 1674.36 526.452 1701.83C590.968 1733.77 655.484 1765.71 720 1772.68C796.433 1780.38 872.866 1753.04 949.299 1725.69C992.866 1710.1 1036.43 1694.51 1080 1685.42C1198 1660.78 1316 1684.59 1376.95 1696.9L1376.95 1696.9L1380 1697.51L1440 1710.47V0L1380 5.27027C1320 10.5405 1200 21.834 1080 42.9151C1040 50.1931 1000 58.6422 960 67.0914C880 83.9897 800 100.888 720 108.417C600 118.958 480 108.417 360 91.8533C240 76.0425 120 54.2085 60 42.9151Z" fill="#E2FFE9"/>
</svg>
