<svg width="1440" height="592" viewBox="0 0 1440 592" fill="none" xmlns="http://www.w3.org/2000/svg">
<path d="M1440 0H0V445.5H22C44 445.5 87 445.5 131 470.058C153.361 482.108 175.463 500.719 197.57 519.333C218.963 537.347 240.361 555.365 262 567.442C305 592 349 592 393 592C436 592 480 592 524 567.442C536.85 560.103 549.79 550.571 562.792 540.993C593.298 518.52 624.149 495.793 655 500.543C677.743 503.679 700.765 522.211 723.772 540.731C744.264 557.227 764.743 573.713 785 579.298C824.247 590.628 863.494 562.206 902.032 534.299C906.699 530.919 911.355 527.547 916 524.254C960 493.769 1004 470.058 1047 470.058C1072.87 470.058 1098.74 478.253 1124.4 486.385C1142.39 492.084 1160.28 497.752 1178 500.543C1222 506.471 1265 493.769 1309 470.058C1353 445.5 1396 409.087 1418 390.457L1440 371.827V0Z" fill="#E2FFE9"/>
</svg>
